<?xml version="1.0" encoding="UTF-8"?>
<svg id="Calque_1" data-name="Calque 1" xmlns="http://www.w3.org/2000/svg" viewBox="0 0 614.84 733.51">
  <defs>
    <style>
      .cls-1 {
        fill: #ff725e;
      }
    </style>
  </defs>
  <path class="cls-1" d="M21.9,485.29c-.26,.29-.52,.57-.77,.82l-.24-.33s.03-.05,.05-.07t.03-.02s.03-.05,.07-.08c.08-.1,.16-.2,.24-.29,.13-.13,.24-.26,.36-.41,.07,.08,.13,.18,.18,.26l.08,.11Z"/>
  <g>
    <path class="cls-1" d="M331.14,443.19s-.1,.07-.15,.08l-.02-.02s.1-.03,.16-.07Z"/>
    <path class="cls-1" d="M330.98,443.25l.02,.02s.1-.05,.15-.08c-.07,.03-.11,.05-.16,.07Z"/>
  </g>
  <circle class="cls-1" cx="191.32" cy="691.19" r="20.06"/>
  <g>
    <path class="cls-1" d="M588.8,457.11c-1.71-4.08-6.9-3.28-14.57-1.6-6.01,1.24-15.41,3.82-22.81,6.27-2.76,.86-5.63,1.81-8.52,2.79-8.88,2.97-18.07,6.04-26.06,6.94-4.52,.52-7.75-.16-9.89-2.06-2.92-2.58-4.32-7.7-4.44-16.14-.05-5.74,.42-12.55,.93-19.76,.9-13.01,1.93-27.76-.03-40.2-1.16-6.97-2.9-17.53-11.49-21.26l-.26-.1c-9.99-3.56-21.49,4.54-30.75,11.03l-.91,.65c-15.83,11.03-30.86,27.55-44.11,42.14l-2.95,3.25-1.34,1.37c-2.84,2.95-5.11,5.3-7.75,6.9-.62-1.76-1.08-5.42-1.4-7.98-.8-6.32-1.71-13.48-5.34-18.15-5.37-7.8-15.59-10.17-26.67-6.2-7.96,2.82-14.08,9.55-20.58,16.68-7.57,8.31-15.41,16.91-26.93,20.53-4.55,1.21-9.55,1.58-14.05,1.84-8,.33-16.09,.18-24.15-.33-11.47-.72-28.49-2.71-47.26-5.21,42.37-59.39,84.01-119.41,124.45-179.37,41.75-62.52,75.32-112.74,111.28-171.91,12.55-20.89,25.43-43.12,33.85-62.13,4-9.17,5.96-15.85,5.86-19.98-.1-5.11-3.35-6.33-9.45-4-11.34,4.08-33.05,22.19-45.16,33.11-45.09,40.42-97.54,95.93-139.16,140.92-16.25,17.79-151.25,156.37-234.81,243.42-56.32-3.92-117.42,1.94-63.35,67.68,.24-.08,.54-.21,.75-.38l.39-.29-.21-.31c-.26,.29-.52,.57-.77,.82l-.24-.33s.03-.05,.05-.07t.03-.02s.03-.05,.07-.08c.08-.1,.16-.2,.24-.29,.13-.13,.24-.26,.36-.41-7.74-11.95-19.34-28.33-16.63-42.99,3.57-17.33,37.63-18.21,71.35-15.03-26.62,27.78-46.94,49.22-54.72,58.02,.07,.08,.13,.18,.18,.26l.08,.11c.98-1.04,2.07-2.3,2.99-3.21,4.77-4.77,25.98-25.93,55-54.85,25.57,2.63,50.33,7.34,60.76,8.75,16.89,2.87,37.98,6.54,58.21,9.79-7.93,11.42-15.81,22.85-23.63,34.27-37.5,54.49-76.6,112.13-110.35,164.94-11,17.23-19.71,31.43-25.93,42.14-7.25,12.48-11.06,20.25-11.31,22.99v.02c-.13,1.42,.7,1.5,2.48,.21,1.78-1.27,4.5-3.92,8.16-7.88,16.5-18.21,37.34-45.04,56.22-69.64,45.22-59.53,90.23-120.62,134.51-182.45,2.92,.41,5.74,.78,8.45,1.14,24.41,2.94,49.38,6.09,74.19,4.16,4.96-.51,10.12-1.19,15.01-2.73l.02,.08c13.51-3.92,20.53-8.54,28.64-13.89,3-1.97,6.12-4.03,9.78-6.19,6.67-3.79,9.2-3.69,10.12-3.28,.86,.38,1.35,1.78,1.62,2.89l.07,.26c.83,2.73,.95,7.12,1.08,11.75,.31,11.29,.69,25.34,11.78,30.66l.29,.11c11.21,4.32,23.22-4.18,32.95-11.03,7.77-5.7,16.25-13.06,23.26-20.15,6.22-6.19,11.93-12.71,17.45-19.03,3.15-3.59,6.12-6.98,8.99-10.1,1.21-1.29,2.12-2.17,2.82-2.81,.02,.23,.03,.46,.03,.72,.11,4.7-.18,9.99-.49,15.59-.91,16.29-1.94,34.76,6.12,50.12,6.15,12.16,15.99,15.7,25.9,15.7,6.19,0,12.39-1.37,17.76-2.9,13.35-3.84,26.58-9.71,36.7-14.44l3.21-1.57c7.67-3.72,13.2-6.43,19.8-10.56,1.76-1.16,5.89-3.88,4.26-7.77Zm-381.95-22.83c-26.31-3.79-52.08-7.72-67.92-9.84-12.6-1.49-31.19-4.03-50.69-5.55,81.29-81.08,212.56-212.02,228.25-227.99,49.86-50.8,109.28-113.21,159.04-161.76,9.25-8.98,23.24-22.18,28.27-25.49,5.32-3.84,7.44-3.74,6.05,.72-5.7,14.15-18.31,31.76-29.88,49.22-17.69,25.95-38.45,54.98-57.8,81.84-71.04,97.89-145.11,198.27-215.31,298.85Zm124.14,8.99l-.02-.02s.1-.03,.16-.07c-.05,.03-.1,.07-.15,.08Z"/>
    <path class="cls-1" d="M21.41,485.49l-.38,.29-.03-.03s-.02-.03-.03-.05c.02-.02,.03-.05,.07-.08,.08-.1,.16-.2,.24-.29,.05,.05,.1,.11,.13,.16Z"/>
    <path class="cls-1" d="M20.97,485.7s-.02,.02-.03,.02c.02,.03,.05,.05,.07,.08v-.05s.02-.08,.03-.13c-.03,.03-.05,.07-.07,.08Zm310.01-42.45l.02,.02s.1-.05,.15-.08c-.07,.03-.11,.05-.16,.07ZM21.82,485.18c-.05-.08-.11-.18-.18-.26-.11,.15-.23,.28-.36,.41-.08,.1-.16,.2-.24,.29-.03,.03-.05,.07-.07,.08t-.03,.02s-.03,.05-.05,.07l.24,.33c.24-.24,.51-.52,.77-.82l-.08-.11Z"/>
  </g>
  <g>
    <path class="cls-1" d="M296.88,719.96h-8.41l-1.44-9.62h-10.22l-1.44,9.62h-7.65l8.48-53.01h12.19l8.48,53.01Zm-19.01-16.81h8.03l-4.01-26.81-4.01,26.81Z"/>
    <path class="cls-1" d="M308.77,711.93v8.03h-8.03v-8.03h8.03Z"/>
    <path class="cls-1" d="M332.47,704.59l5.68-37.64h11.59v53.01h-7.88v-38.02l-5.75,38.02h-7.88l-6.21-37.49v37.49h-7.27v-53.01h11.59l6.13,37.64Z"/>
    <path class="cls-1" d="M391.69,700.19v7.04c0,8.48-4.24,13.33-12.42,13.33s-12.42-4.85-12.42-13.33v-27.57c0-8.48,4.24-13.33,12.42-13.33s12.42,4.85,12.42,13.33v5.15h-7.88v-5.68c0-3.79-1.67-5.23-4.32-5.23s-4.32,1.44-4.32,5.23v28.63c0,3.79,1.67,5.15,4.32,5.15s4.32-1.36,4.32-5.15v-7.57h7.88Z"/>
    <path class="cls-1" d="M414.18,719.96c-.46-1.36-.76-2.2-.76-6.51v-8.33c0-4.92-1.67-6.74-5.45-6.74h-2.88v21.58h-8.33v-53.01h12.57c8.63,0,12.34,4.01,12.34,12.19v4.17c0,5.45-1.74,9.01-5.45,10.75,4.17,1.74,5.53,5.76,5.53,11.28v8.18c0,2.57,.08,4.47,.91,6.44h-8.48Zm-9.09-45.44v16.28h3.26c3.1,0,5-1.36,5-5.6v-5.23c0-3.79-1.29-5.45-4.24-5.45h-4.01Z"/>
    <path class="cls-1" d="M435.53,689.29h11.44v7.57h-11.44v15.52h14.39v7.57h-22.72v-53.01h22.72v7.57h-14.39v14.77Z"/>
    <path class="cls-1" d="M482.02,719.96h-8.41l-1.44-9.62h-10.22l-1.44,9.62h-7.65l8.48-53.01h12.19l8.48,53.01Zm-19.01-16.81h8.03l-4.01-26.81-4.01,26.81Z"/>
    <path class="cls-1" d="M483.46,666.95h25.75v7.57h-8.71v45.44h-8.33v-45.44h-8.71v-7.57Z"/>
    <path class="cls-1" d="M512.84,666.95h8.33v53.01h-8.33v-53.01Z"/>
    <path class="cls-1" d="M526.55,679.67c0-8.48,4.47-13.33,12.65-13.33s12.65,4.85,12.65,13.33v27.57c0,8.48-4.47,13.33-12.65,13.33s-12.65-4.85-12.65-13.33v-27.57Zm8.33,28.1c0,3.79,1.67,5.23,4.32,5.23s4.32-1.44,4.32-5.23v-28.63c0-3.79-1.67-5.23-4.32-5.23s-4.32,1.44-4.32,5.23v28.63Z"/>
    <path class="cls-1" d="M564.63,681.56v38.39h-7.5v-53.01h10.45l8.56,31.73v-31.73h7.42v53.01h-8.56l-10.38-38.39Z"/>
    <path class="cls-1" d="M600.75,666.34c8.1,0,12.27,4.85,12.27,13.33v1.67h-7.88v-2.2c0-3.79-1.51-5.23-4.17-5.23s-4.17,1.44-4.17,5.23c0,10.91,16.28,12.95,16.28,28.1,0,8.48-4.24,13.33-12.42,13.33s-12.42-4.85-12.42-13.33v-3.26h7.88v3.79c0,3.79,1.67,5.15,4.32,5.15s4.32-1.36,4.32-5.15c0-10.91-16.28-12.95-16.28-28.1,0-8.48,4.17-13.33,12.27-13.33Z"/>
  </g>
</svg>