<?xml version="1.0" encoding="UTF-8"?>
<svg id="Calque_1" data-name="Calque 1" xmlns="http://www.w3.org/2000/svg" viewBox="0 0 22.08 14.28">
  <defs>
    <style>
      .cls-1 {
        fill: #fff;
      }
    </style>
  </defs>
  <path class="cls-1" d="M3.84,12.96c-.26,0-.48-.21-.48-.48h0v-2.73C1.28,8.79,0,7.1,0,5.28,0,2.37,3.23,0,7.2,0s7.2,2.37,7.2,5.28-3.23,5.28-7.2,5.28c-.23,0-.46,0-.67-.02-.67,.91-1.49,1.71-2.42,2.34-.08,.05-.17,.08-.27,.08ZM7.2,.96C3.76,.96,.96,2.9,.96,5.28c0,1.51,1.17,2.93,3.05,3.71,.18,.08,.31,.25,.31,.45v2.07c.6-.49,1.13-1.07,1.54-1.72,.1-.16,.28-.25,.47-.23,.29,.03,.58,.05,.87,.04,3.44,0,6.24-1.94,6.24-4.32S10.64,.96,7.2,.96Z"/>
  <path class="cls-1" d="M18.24,14.28c-.09,0-.19-.03-.27-.08-.93-.64-1.75-1.43-2.42-2.34-.22,.02-.44,.02-.67,.02-.86,0-1.71-.11-2.54-.34-.26-.07-.41-.33-.34-.59,.07-.26,.33-.41,.59-.34h0c.75,.2,1.51,.31,2.29,.3,.29,0,.58-.01,.87-.05,.19-.02,.37,.07,.47,.23,.42,.65,.94,1.23,1.54,1.72v-2.07c0-.2,.12-.37,.31-.45,1.88-.78,3.05-2.2,3.05-3.71,0-2.28-2.56-4.17-5.83-4.31-.26-.01-.47-.23-.46-.5,.01-.26,.22-.46,.48-.46h0c3.81,.17,6.77,2.48,6.77,5.27,0,1.82-1.28,3.51-3.36,4.47v2.73c0,.27-.21,.48-.48,.48h0Z"/>
  <path class="cls-1" d="M7.32,6.24c-.53,0-.96-.43-.96-.96s.43-.96,.96-.96,.96,.43,.96,.96c0,.53-.43,.96-.96,.96Zm.36-.96h-.48s.48,.48,.48,.48v-.48Z"/>
  <path class="cls-1" d="M10.68,6.24c-.53,0-.96-.43-.96-.96s.43-.96,.96-.96,.96,.43,.96,.96c0,.53-.43,.96-.96,.96Zm.36-.96h-.48s.48,.48,.48,.48v-.48Z"/>
  <path class="cls-1" d="M3.96,6.24c-.53,0-.96-.43-.96-.96s.43-.96,.96-.96,.96,.43,.96,.96c0,.53-.43,.96-.96,.96Zm.36-.96h-.48s.48,.48,.48,.48v-.48Z"/>
</svg>