<?xml version="1.0" encoding="UTF-8"?>
<svg id="Calque_1" data-name="Calque 1" xmlns="http://www.w3.org/2000/svg" viewBox="0 0 23.09 20.93">
  <defs>
    <style>
      .cls-1 {
        fill: #fff;
      }
    </style>
  </defs>
  <path class="cls-1" d="M22.73,0H.36c-.2,0-.36,.16-.36,.36V20.57c0,.14,.08,.26,.2,.32,.05,.02,.1,.04,.16,.04,.08,0,.15-.03,.22-.07l2.79-2.09H22.73c.2,0,.36-.16,.36-.36V.36c0-.2-.16-.36-.36-.36Zm-.36,18.04H3.25c-.08,0-.15,.03-.22,.07l-2.31,1.73V.72H22.37V18.04Z"/>
  <path class="cls-1" d="M9.38,10.84v1.39c.16,.01,.16,.03,.16,.04,0,.01,0,.03,.02,.04v.02l.53,1.44c.06,.14,.35,.3,.35,.3h1.43c.16,0,.3-.09,.36-.23l.58-1.44v-.02s0-.03,0-.04c0-.01,0-.03,0-.04v-1.47s0-.02,0-.04c.13-.38,.32-.74,.58-1.06,.94-1.2,.67-2.9-.61-3.78-.51-.35-1.13-.54-1.76-.53-1.55,.05-2.78,1.25-2.79,2.71,0,.54,.18,1.07,.5,1.52,.27,.37,.49,.78,.65,1.2Zm2.71,1.07h-1.8v-.72h1.8v.72Zm-.45,1.44h-.94l-.27-.72h1.48l-.27,.72Zm-.54-7.2c1.1-.04,2.01,.82,2.05,1.91,0,.02,0,.04,0,.06,0,.43-.14,.84-.39,1.18-.27,.35-.48,.75-.63,1.17h-1.95c-.16-.44-.38-.85-.64-1.23-.23-.33-.36-.71-.36-1.11,.02-1.07,.86-1.94,1.92-1.98h0Z"/>
  <path class="cls-1" d="M7.02,8.48h.35c.16,0,.31-.09,.36-.24,.08-.25-.1-.48-.34-.48h-.35c-.16,0-.31,.09-.36,.24-.08,.25,.1,.48,.34,.48Z"/>
  <path class="cls-1" d="M14.95,8.48h.35c.16,0,.31-.09,.36-.24,.08-.25-.1-.48-.34-.48h-.35c-.16,0-.31,.09-.36,.24-.08,.25,.1,.48,.34,.48Z"/>
  <path class="cls-1" d="M12.83,5.04c.15,.13,.38,.1,.51-.05l.27-.33c.12-.16,.08-.39-.08-.5-.15-.11-.36-.09-.48,.05l-.26,.33c-.13,.15-.11,.38,.04,.51Z"/>
  <path class="cls-1" d="M9,4.99c.13,.15,.36,.16,.51,.03,.14-.12,.16-.33,.05-.48l-.27-.33c-.13-.15-.36-.16-.51-.03-.14,.12-.16,.33-.05,.48l.27,.33Z"/>
  <path class="cls-1" d="M3.61,13.41s.01,.05,.02,.07h0l.84,2.16c.07,.18,.27,.27,.44,.2,.08-.04,.15-.11,.18-.2l.84-2.16h0s.02-.05,.02-.07v-.11s.16-.02,.18-.03V3.17c-.02-.2-.38-.28-.38-.28h-1.78c-.2,0-.36,.16-.36,.36V13.35s0,.02,0,.03v.03Zm1.24,1.17l-.36-.87h.72l-.36,.87Zm-.52-10.97h1.08V12.99h-1.08V3.61Z"/>
  <path class="cls-1" d="M16.6,15.87h2.89c.2,0,.36-.16,.36-.36V3.25c0-.2-.16-.36-.36-.36h-2.89c-.2,0-.36,.16-.36,.36V15.51c0,.2,.16,.36,.36,.36Zm.36-12.27h2.16v1.44h-.71c-.16,0-.31,.09-.36,.24-.08,.25,.1,.48,.34,.48h.72v1.44h-.71c-.16,0-.31,.09-.36,.24-.08,.25,.1,.48,.34,.48h.72v1.44h-.71c-.16,0-.31,.09-.36,.24-.08,.25,.1,.48,.34,.48h.72v1.44h-.71c-.16,0-.31,.09-.36,.24-.08,.25,.1,.48,.34,.48h.72v1.44h-.71c-.16,0-.31,.09-.36,.24-.08,.25,.1,.48,.34,.48h.72v.72h-2.16V3.61Z"/>
</svg>