<svg xmlns="http://www.w3.org/2000/svg" version="1.1" viewBox="-5.0 -10.0 110.0 135.0">
 <path d="m95.281 39.102-22.922-22.922c-0.35938-0.35938-0.83984-0.55859-1.3516-0.55859h-42.02c-0.51172 0-0.98828 0.19922-1.3516 0.55859l-22.918 22.922c-0.35938 0.35938-0.55859 0.85938-0.55859 1.3711 0.011719 0.51172 0.21875 1 0.58984 1.3594l43.93 42.02c0.73828 0.71094 1.8984 0.71094 2.6406 0l43.93-42.02c0.37109-0.35938 0.57812-0.85156 0.58984-1.3594 0-0.51172-0.19922-1.0117-0.55859-1.3711zm-26.902-19.66-5.3711 16.609-9.6914-16.609zm-8.3281 19.098h-20.09l10.039-17.219zm-13.371-19.098-9.6914 16.609-5.3711-16.609zm-18.539 1.6484 5.6484 17.449h-23.102zm-17.312 21.27h24.191l10.84 33.5zm39.172 33.91-10.969-33.91h21.941zm4.1406-0.41016 10.84-33.5h24.191zm12.078-37.32 5.6484-17.449 17.449 17.449z"/>
<text x="0.0" y="117.5" font-size="5.0" font-weight="bold" font-family="Arbeit Regular, Helvetica, Arial-Unicode, Arial, Sans-serif" fill="#000000">Created by Keval</text><text x="0.0" y="122.5" font-size="5.0" font-weight="bold" font-family="Arbeit Regular, Helvetica, Arial-Unicode, Arial, Sans-serif" fill="#000000">from Noun Project</text></svg>