<?xml version="1.0" encoding="UTF-8"?>
<svg id="Calque_1" data-name="Calque 1" xmlns="http://www.w3.org/2000/svg" viewBox="0 0 19.61 17.31">
  <defs>
    <style>
      .cls-1 {
        fill: #fff;
      }
    </style>
  </defs>
  <path class="cls-1" d="M0,13.49v.75C0,15.93,1.37,17.31,3.07,17.31h5.38c1.69,0,3.06-1.37,3.06-3.06v-.76c0-1.56-.62-3.05-1.73-4.15-.3-.3-.78-.3-1.08,0-.3,.3-.3,.78,0,1.08h0c.82,.81,1.28,1.92,1.28,3.08v.74c0,.85-.69,1.53-1.53,1.53H3.07c-.85,0-1.53-.69-1.53-1.53v-.76c0-2.39,1.95-4.32,4.35-4.32h0c2.87,0,5.12-2.6,4.51-5.56-.36-1.73-1.76-3.13-3.49-3.49C3.92-.52,1.29,1.72,1.29,4.57c0,1.47,.71,2.85,1.9,3.72C1.23,9.29,0,11.3,0,13.49ZM5.54,1.19c1.7,0,3.07,1.37,3.07,3.07s-1.37,3.07-3.07,3.07-3.07-1.37-3.07-3.07S3.85,1.19,5.54,1.19Z"/>
  <path class="cls-1" d="M15.26,10.9c1.46,0,3.38-2.67,3.4-2.7,1.2-1.69,1.27-3.31,.17-4.35-.35-.32-.79-.53-1.26-.61-.85-.13-1.7,.15-2.3,.77-.6-.61-1.46-.9-2.3-.77-.47,.07-.91,.28-1.26,.61-1.1,1.04-1.04,2.66,.17,4.35,0,.03,1.93,2.7,3.38,2.7Zm-2.51-5.66c.13-.11,.3-.18,.47-.21h.12c.5,0,1,.29,1.15,.77,.02,.08,.06,.16,.1,.23,.2,.37,.67,.51,1.04,.31,.13-.07,.24-.18,.31-.31,.03-.06,.06-.12,.08-.18,.2-.52,.73-.84,1.29-.77,.17,.02,.33,.1,.47,.21,.71,.67,0,1.86-.37,2.35-.55,.83-1.28,1.53-2.13,2.06-.87-.52-1.61-1.24-2.16-2.09-.35-.51-1.07-1.7-.36-2.37Z"/>
</svg>