<?xml version="1.0" encoding="utf-8"?>
<!-- Generator: Adobe Illustrator 27.0.1, SVG Export Plug-In . SVG Version: 6.00 Build 0)  -->
<svg version="1.1" id="Calque_1" xmlns="http://www.w3.org/2000/svg" xmlns:xlink="http://www.w3.org/1999/xlink" x="0px" y="0px"
	 viewBox="0 0 110 86.8" style="enable-background:new 0 0 110 86.8;" xml:space="preserve">
<path d="M13.6,49.3L42.9,9.1c0.5-0.7,1.3-1,2.1-0.8l16.7,3L32.4,53.8L13.6,49.3z M31.5,57.9l-19.1-4.5v10.9c0,0.9,0.6,1.7,1.4,2
	l21,7L31.5,57.9z M73.1,20.9l-7.8-7.7L35.5,56.6l3.3,15.5l34.6-48.5C74,22.8,73.9,21.6,73.1,20.9L73.1,20.9z M73.8,30.2L63,45.4
	l11.5,10.4L96,48.6L73.8,30.2z M60.5,48.8l-5.8,8.1l18.4,15.8l-1.3-13.5L60.5,48.8z M76.2,59.6L77.4,73l18.8-7.3
	c0.8-0.3,1.3-1.1,1.3-1.9V52.4L76.2,59.6z"/>
</svg>
