<?xml version="1.0" encoding="utf-8"?>
<!-- Generator: Adobe Illustrator 27.0.1, SVG Export Plug-In . SVG Version: 6.00 Build 0)  -->
<svg version="1.1" id="Calque_1" xmlns="http://www.w3.org/2000/svg" xmlns:xlink="http://www.w3.org/1999/xlink" x="0px" y="0px"
	 viewBox="0 0 32 32" style="enable-background:new 0 0 32 32;" xml:space="preserve">
<style type="text/css">
	.st0{fill:#FFFFFF;}
	.st1{fill-rule:evenodd;clip-rule:evenodd;fill:#FFFFFF;}
	.st2{fill-rule:evenodd;clip-rule:evenodd;}
</style>
<g>
	<path d="M25.4,16.2c1.1-1.2,1.7-2.8,1.7-4.4c0-1.8-0.7-3.5-2-4.7c-2.5-2.5-6.5-2.6-9.1-0.3c-1.2-1.1-2.8-1.7-4.4-1.7
		c-1.8,0-3.5,0.7-4.7,2c-2.5,2.5-2.6,6.5-0.3,9.1L6,16.8c-0.4,0.4-0.6,0.9-0.6,1.4c0,0.5,0.2,1.1,0.6,1.4c0.4,0.4,0.9,0.6,1.4,0.6
		c0.1,0,0.2,0,0.2,0c0,0.1,0,0.1,0,0.2c0,0.5,0.2,1.1,0.6,1.4c0.4,0.4,0.9,0.6,1.4,0.6c0.1,0,0.2,0,0.2,0c-0.1,0.6,0.1,1.2,0.6,1.6
		c0.4,0.4,0.9,0.6,1.4,0.6c0.1,0,0.2,0,0.2,0c0,0.1,0,0.1,0,0.2c0,0.5,0.2,1.1,0.6,1.4c0.4,0.4,0.9,0.6,1.4,0.6s1.1-0.2,1.4-0.6
		l0.6-0.6l0.6,0.6c0.4,0.4,0.9,0.6,1.4,0.6c0,0,0,0,0,0c0.5,0,1-0.2,1.4-0.6c0.4-0.4,0.6-0.9,0.6-1.4c0-0.1,0-0.1,0-0.2
		c0.6,0.1,1.2-0.1,1.6-0.6c0.4-0.4,0.6-0.9,0.6-1.4c0-0.1,0-0.1,0-0.2c0.6,0.1,1.2-0.1,1.6-0.6c0.4-0.4,0.6-0.9,0.6-1.4
		c0-0.1,0-0.1,0-0.2c0.6,0.1,1.2-0.1,1.6-0.6c0.4-0.4,0.6-0.9,0.6-1.4s-0.2-1.1-0.6-1.4L25.4,16.2z M24.5,7.7
		c1.1,1.1,1.7,2.5,1.7,4.1c0,1.4-0.5,2.7-1.4,3.8l-6.3-6.3l0,0c-0.2-0.2-0.4-0.2-0.6,0l-3.6,3.6c-0.2,0.2-0.5,0.3-0.8,0.4l0,0
		c-0.3,0-0.6-0.1-0.8-0.3c-0.2-0.2-0.3-0.5-0.3-0.8s0.1-0.6,0.4-0.8l1.1-1.1l0,0l2.5-2.5C18.6,5.5,22.3,5.5,24.5,7.7z M7.3,19.4
		c-0.3,0-0.6-0.1-0.8-0.3c-0.2-0.2-0.3-0.5-0.3-0.8s0.1-0.6,0.4-0.8l2.1-2.1C8.9,15.2,9.2,15,9.5,15c0.3,0,0.6,0.1,0.8,0.3
		c0.2,0.2,0.3,0.5,0.3,0.8c0,0.3-0.1,0.6-0.4,0.8l-2.1,2.1C7.9,19.3,7.6,19.4,7.3,19.4z M9.6,21.6c-0.3,0-0.6-0.1-0.8-0.3
		c-0.2-0.2-0.3-0.5-0.3-0.8s0.1-0.6,0.4-0.8l2.1-2.1c0.2-0.2,0.5-0.4,0.8-0.4c0.3,0,0.6,0.1,0.8,0.3c0.4,0.4,0.4,1.1,0,1.6l-2.1,2.1
		C10.1,21.5,9.9,21.6,9.6,21.6z M11.8,23.8c-0.3,0-0.6-0.1-0.8-0.3c-0.4-0.4-0.4-1.1,0-1.6l2.1-2.1c0.2-0.2,0.5-0.4,0.8-0.4
		c0.3,0,0.6,0.1,0.8,0.3c0.4,0.4,0.4,1.1,0,1.6l-2.1,2.1C12.4,23.7,12.1,23.8,11.8,23.8z M14.8,25.7c-0.2,0.2-0.5,0.4-0.8,0.4
		c-0.3,0-0.6-0.1-0.8-0.3c-0.2-0.2-0.3-0.5-0.3-0.8c0-0.3,0.1-0.6,0.4-0.8l2.1-2.1c0.2-0.2,0.5-0.4,0.8-0.4c0.3,0,0.6,0.1,0.8,0.3
		c0.4,0.4,0.4,1.1,0,1.6L14.8,25.7z M25.4,19.1c-0.4,0.4-1.1,0.4-1.6,0c-0.2-0.2-0.4-0.2-0.6,0c-0.1,0.1-0.1,0.2-0.1,0.3
		c0,0.1,0,0.2,0.1,0.3c0.2,0.2,0.3,0.5,0.4,0.8c0,0.3-0.1,0.6-0.3,0.8c-0.4,0.4-1.1,0.4-1.6,0c-0.2-0.2-0.4-0.2-0.6,0
		c-0.1,0.1-0.1,0.2-0.1,0.3c0,0.1,0,0.2,0.1,0.3c0.2,0.2,0.3,0.5,0.3,0.8c0,0.3-0.1,0.6-0.3,0.8c-0.4,0.4-1.1,0.4-1.6,0
		c-0.2-0.2-0.4-0.2-0.6,0c-0.1,0.1-0.1,0.2-0.1,0.3c0,0.1,0,0.2,0.1,0.3c0.2,0.2,0.3,0.5,0.3,0.8s-0.1,0.6-0.3,0.8s-0.5,0.3-0.8,0.3
		l0,0c-0.3,0-0.6-0.1-0.8-0.3L16.6,25l0.9-0.9c0.8-0.8,0.8-2.1,0-2.8c-0.4-0.4-0.9-0.6-1.4-0.6c-0.1,0-0.2,0-0.2,0
		c0.1-0.6-0.1-1.2-0.6-1.6c-0.4-0.4-0.9-0.6-1.4-0.6c-0.1,0-0.2,0-0.2,0c0.1-0.6-0.1-1.2-0.6-1.6c-0.4-0.4-0.9-0.6-1.4-0.6
		c-0.1,0-0.2,0-0.2,0c0-0.1,0-0.1,0-0.2c0-0.5-0.2-1.1-0.6-1.4c-0.4-0.4-0.9-0.6-1.4-0.6s-1.1,0.2-1.4,0.6l-0.9,0.9
		c-2-2.3-1.9-5.7,0.3-7.9C8.6,6.6,10.1,6,11.6,6c1.4,0,2.7,0.5,3.8,1.4l-0.9,0.9l0,0l-2.4,2.4c-0.4,0.4-0.6,0.9-0.6,1.4
		c0,0.5,0.2,1.1,0.6,1.4c0.4,0.4,0.9,0.6,1.4,0.6c0,0,0,0,0,0c0.5,0,1.1-0.2,1.4-0.6l3.3-3.3l7.2,7.2c0.2,0.2,0.3,0.5,0.3,0.8
		C25.8,18.6,25.6,18.8,25.4,19.1z"/>
</g>
</svg>
