<?xml version="1.0" encoding="utf-8"?>
<!-- Generator: Adobe Illustrator 27.0.1, SVG Export Plug-In . SVG Version: 6.00 Build 0)  -->
<svg version="1.1" id="Calque_1" xmlns="http://www.w3.org/2000/svg" xmlns:xlink="http://www.w3.org/1999/xlink" x="0px" y="0px"
	 viewBox="0 0 32 32" style="enable-background:new 0 0 32 32;" xml:space="preserve">
<style type="text/css">
	.st0{fill:#FFFFFF;}
	.st1{fill-rule:evenodd;clip-rule:evenodd;fill:#FFFFFF;}
	.st2{fill-rule:evenodd;clip-rule:evenodd;}
</style>
<g>
	<path d="M18.6,17c0.6-1.3,0.7-2.8,0.4-4.3l-1,0.2c0.4,2.1-0.2,4.2-1.7,5.7c-1.2,1.2-2.8,1.9-4.5,1.9s-3.3-0.6-4.4-1.9
		C5,16.2,5,12.2,7.4,9.7L6.7,9c-2.9,2.9-2.9,7.5,0,10.4c1.4,1.4,3.2,2.1,5.2,2.1c1,0,1.9-0.2,2.8-0.6l4.6,4.6c0.5,0.5,1.3,0.8,2,0.8
		s1.4-0.3,2-0.8c1.1-1.1,1.1-2.9,0-4L18.6,17L18.6,17L18.6,17z M22.5,24.8c-0.7,0.7-1.8,0.7-2.5,0l-4.4-4.4c0.5-0.3,1-0.7,1.4-1.1
		s0.8-0.9,1.1-1.4l4.4,4.4C23.2,23,23.2,24.1,22.5,24.8L22.5,24.8z"/>
	<path d="M27.1,14.9h-0.3c-0.1,0-0.2-0.1-0.2-0.1l0,0c0-0.1,0-0.2,0-0.3l0.3-0.3c0.2-0.1,0.2-0.4,0-0.5l-0.6-0.6
		c-0.2-0.2-0.4-0.2-0.6,0l-0.3,0.3c0,0-0.1,0.1-0.2,0.1c0,0-0.1,0-0.1,0c-0.1,0-0.2-0.1-0.2-0.2v-0.4c0-0.2-0.2-0.4-0.4-0.4h-0.8
		c-0.2,0-0.4,0.2-0.4,0.4v0.4c0,0.1-0.1,0.2-0.1,0.2c0,0-0.1,0-0.1,0c-0.1,0-0.1,0-0.2-0.1l-0.3-0.3c-0.1-0.2-0.4-0.2-0.5,0
		l-0.5,0.6c-0.1,0.1-0.1,0.4,0,0.5l0.3,0.3c0.1,0.1,0.1,0.2,0,0.2l0,0c0,0.1-0.1,0.1-0.2,0.1h-0.4c-0.2,0-0.4,0.2-0.4,0.4V16
		c0,0.2,0.2,0.4,0.4,0.4h0.4c0.1,0,0.2,0.1,0.2,0.1l0,0c0,0.1,0,0.2,0,0.2l-0.3,0.3c-0.1,0.1-0.1,0.4,0,0.5l0.5,0.6
		c0.1,0.1,0.4,0.1,0.5,0l0.3-0.3c0.1-0.1,0.2-0.1,0.3,0c0.1,0,0.1,0.1,0.1,0.2v0.4c0,0.2,0.2,0.4,0.4,0.4h0.8c0.2,0,0.4-0.2,0.4-0.4
		V18c0-0.1,0.1-0.2,0.2-0.2c0.1,0,0.2,0,0.3,0l0.3,0.3c0.2,0.1,0.4,0.1,0.6,0l0.6-0.5c0.2-0.1,0.2-0.4,0-0.5l-0.3-0.3
		c-0.1-0.1-0.1-0.2,0-0.2l0,0c0-0.1,0.1-0.2,0.2-0.2h0.3c0.2,0,0.4-0.2,0.4-0.4v-0.8C27.5,15,27.3,14.8,27.1,14.9L27.1,14.9
		L27.1,14.9z M24.3,16.7c-0.6,0-1.2-0.5-1.2-1.2c0-0.7,0.5-1.2,1.2-1.2s1.2,0.5,1.2,1.2C25.5,16.2,24.9,16.7,24.3,16.7z"/>
	<path d="M11.1,11.5h11.2v-0.9H11.1c-1.2,0-2.2-1.1-1.9-2.2c0.2-0.9,1-1.4,1.9-1.4h12.4V5.6H11.1c-1.9,0-3.4,1.7-3,3.6
		C8.5,10.6,9.7,11.5,11.1,11.5L11.1,11.5z"/>
	<path d="M11.8,8.1h8V9h-8V8.1z"/>
	<path d="M20.7,8.1h1.2V9h-1.2V8.1z"/>
	<path d="M23.2,8.1h1.2V9h-1.2V8.1z"/>
</g>
</svg>
