<?xml version="1.0" encoding="utf-8"?>
<!-- Generator: Adobe Illustrator 27.0.1, SVG Export Plug-In . SVG Version: 6.00 Build 0)  -->
<svg version="1.1" id="Calque_1" xmlns="http://www.w3.org/2000/svg" xmlns:xlink="http://www.w3.org/1999/xlink" x="0px" y="0px"
	 viewBox="0 0 32 32" style="enable-background:new 0 0 32 32;" xml:space="preserve">
<style type="text/css">
	.st0{fill:#FFFFFF;}
	.st1{fill-rule:evenodd;clip-rule:evenodd;fill:#FFFFFF;}
	.st2{fill-rule:evenodd;clip-rule:evenodd;}
</style>
<g>
	<path class="st0" d="M27.2,5.5H4.8c-0.2,0-0.4,0.2-0.4,0.4v20.2c0,0.1,0.1,0.3,0.2,0.3c0.1,0,0.1,0,0.2,0c0.1,0,0.2,0,0.2-0.1
		l2.8-2.1h19.4c0.2,0,0.4-0.2,0.4-0.4v-18C27.5,5.7,27.4,5.5,27.2,5.5z M26.8,23.6H7.7c-0.1,0-0.2,0-0.2,0.1l-2.3,1.7V6.3h21.7
		C26.8,6.3,26.8,23.6,26.8,23.6z"/>
	<path class="st0" d="M13.8,16.4v1.4c0.2,0,0.2,0,0.2,0s0,0,0,0v0l0.5,1.4c0.1,0.1,0.4,0.3,0.4,0.3h1.4c0.2,0,0.3-0.1,0.4-0.2
		l0.6-1.4v0c0,0,0,0,0,0c0,0,0,0,0,0v-1.5c0,0,0,0,0,0c0.1-0.4,0.3-0.7,0.6-1.1c0.9-1.2,0.7-2.9-0.6-3.8c-0.5-0.3-1.1-0.5-1.8-0.5
		c-1.6,0.1-2.8,1.2-2.8,2.7c0,0.5,0.2,1.1,0.5,1.5C13.5,15.6,13.7,16,13.8,16.4L13.8,16.4z M16.5,17.4h-1.8v-0.7h1.8V17.4z
		 M16.1,18.9h-0.9l-0.3-0.7h1.5C16.4,18.2,16.1,18.9,16.1,18.9z M15.6,11.7c1.1,0,2,0.8,2,1.9c0,0,0,0,0,0.1c0,0.4-0.1,0.8-0.4,1.2
		c-0.3,0.4-0.5,0.8-0.6,1.2h-1.9c-0.2-0.4-0.4-0.9-0.6-1.2c-0.2-0.3-0.4-0.7-0.4-1.1C13.7,12.6,14.5,11.7,15.6,11.7
		C15.6,11.7,15.6,11.7,15.6,11.7z"/>
	<path class="st0" d="M11.5,14h0.3c0.2,0,0.3-0.1,0.4-0.2c0.1-0.2-0.1-0.5-0.3-0.5h-0.3c-0.2,0-0.3,0.1-0.4,0.2
		C11.1,13.8,11.2,14,11.5,14z"/>
	<path class="st0" d="M19.4,14h0.4c0.2,0,0.3-0.1,0.4-0.2c0.1-0.2-0.1-0.5-0.3-0.5h-0.4c-0.2,0-0.3,0.1-0.4,0.2
		C19,13.8,19.2,14,19.4,14z"/>
	<path class="st0" d="M17.3,10.6c0.1,0.1,0.4,0.1,0.5-0.1l0.3-0.3c0.1-0.2,0.1-0.4-0.1-0.5c-0.1-0.1-0.4-0.1-0.5,0.1l-0.3,0.3
		C17.1,10.2,17.1,10.5,17.3,10.6L17.3,10.6z"/>
	<path class="st0" d="M13.5,10.5c0.1,0.1,0.4,0.2,0.5,0c0.1-0.1,0.2-0.3,0.1-0.5l-0.3-0.3c-0.1-0.2-0.4-0.2-0.5,0
		c-0.1,0.1-0.2,0.3-0.1,0.5L13.5,10.5z"/>
	<path class="st0" d="M8.1,18.9C8.1,18.9,8.1,19,8.1,18.9L8.1,18.9l0.9,2.2c0.1,0.2,0.3,0.3,0.4,0.2c0.1,0,0.1-0.1,0.2-0.2l0.8-2.2
		l0,0c0,0,0,0,0-0.1v-0.1c0,0,0.2,0,0.2,0V8.7c0-0.2-0.4-0.3-0.4-0.3H8.4c-0.2,0-0.4,0.2-0.4,0.4V18.9C8.1,18.9,8.1,18.9,8.1,18.9
		C8.1,18.9,8.1,18.9,8.1,18.9z M9.3,20.1l-0.4-0.9h0.7L9.3,20.1z M8.8,9.1h1.1v9.4H8.8C8.8,18.5,8.8,9.1,8.8,9.1z"/>
	<path class="st0" d="M21.1,21.4h2.9c0.2,0,0.4-0.2,0.4-0.4V8.8c0-0.2-0.2-0.4-0.4-0.4h-2.9c-0.2,0-0.4,0.2-0.4,0.4V21
		C20.7,21.2,20.9,21.4,21.1,21.4z M21.4,9.1h2.2v1.4h-0.7c-0.2,0-0.3,0.1-0.4,0.2c-0.1,0.2,0.1,0.5,0.3,0.5h0.7v1.4h-0.7
		c-0.2,0-0.3,0.1-0.4,0.2c-0.1,0.2,0.1,0.5,0.3,0.5h0.7v1.4h-0.7c-0.2,0-0.3,0.1-0.4,0.2c-0.1,0.2,0.1,0.5,0.3,0.5h0.7v1.4h-0.7
		c-0.2,0-0.3,0.1-0.4,0.2c-0.1,0.2,0.1,0.5,0.3,0.5h0.7v1.4h-0.7c-0.2,0-0.3,0.1-0.4,0.2c-0.1,0.2,0.1,0.5,0.3,0.5h0.7v0.7h-2.2
		L21.4,9.1L21.4,9.1z"/>
</g>
</svg>
