<?xml version="1.0" encoding="utf-8"?>
<!-- Generator: Adobe Illustrator 27.0.1, SVG Export Plug-In . SVG Version: 6.00 Build 0)  -->
<svg version="1.1" id="Calque_1" xmlns="http://www.w3.org/2000/svg" xmlns:xlink="http://www.w3.org/1999/xlink" x="0px" y="0px"
	 viewBox="0 0 32 32" style="enable-background:new 0 0 32 32;" xml:space="preserve">
<style type="text/css">
	.st0{fill:#FFFFFF;}
	.st1{fill-rule:evenodd;clip-rule:evenodd;fill:#FFFFFF;}
	.st2{fill-rule:evenodd;clip-rule:evenodd;}
</style>
<g>
	<path d="M16,8.4c-3,0-5.5,2.5-5.5,5.5c0,3,2.5,5.5,5.5,5.5s5.5-2.5,5.5-5.5C21.5,10.9,19,8.4,16,8.4z M16,18.6
		c-2.6,0-4.7-2.1-4.7-4.7c0-2.6,2.1-4.7,4.7-4.7s4.7,2.1,4.7,4.7C20.7,16.5,18.6,18.6,16,18.6z"/>
	<path d="M18.7,14v-1.5c0-0.4-0.2-0.9-0.5-1.1l-1-1c-0.3-0.3-0.8-0.5-1.1-0.5h-1.5c-0.4,0-0.6,0.2-0.6,0.3c0,0.1-0.1,0.4,0.2,0.7
		l1.9,1.9c0.1,0.1,0.1,0.3,0.1,0.4L16,13.4c-0.1,0.2-0.3,0.4-0.5,0.5l-0.3,0.1c-0.1,0.1-0.3,0-0.4-0.1l-1.9-1.9
		c-0.3-0.3-0.6-0.2-0.7-0.2c-0.1,0-0.3,0.2-0.3,0.6l0,1.5c0,0.4,0.2,0.9,0.5,1.1l1,1c0.3,0.3,0.8,0.5,1.1,0.5l1.5,0
		c0.2,0,0.5,0.1,0.6,0.2l1,1c0.1,0.1,0.2,0.1,0.3,0.1c0.1,0,0.2,0,0.3-0.1c0.1-0.1,0.1-0.4,0-0.5l-1-1c-0.3-0.3-0.8-0.5-1.1-0.5h0
		l-1.5,0h0c-0.2,0-0.5-0.1-0.6-0.2l-1-1c-0.1-0.1-0.2-0.4-0.2-0.6l0-1.1l1.6,1.6c0.3,0.3,0.9,0.4,1.3,0.2l0.3-0.1
		c0.3-0.2,0.7-0.5,0.9-0.9l0.1-0.3c0.2-0.4,0.1-0.9-0.2-1.3L15,10.7H16c0.2,0,0.5,0.1,0.6,0.2l1,1c0.1,0.1,0.2,0.4,0.2,0.6V14
		c0,0.4,0.2,0.9,0.5,1.1l1,1c0.1,0.1,0.4,0.1,0.5,0c0.1-0.1,0.1-0.4,0-0.5l-1-1C18.8,14.5,18.7,14.2,18.7,14L18.7,14z"/>
	<path d="M28.9,21.9h-0.1V7.1c0-1-0.8-1.9-1.9-1.9l-21.8,0C4,5.2,3.2,6,3.2,7.1v14.8H3.1c-0.6,0-1,0.5-1,1v2.8c0,0.6,0.5,1,1,1h25.8
		c0.6,0,1-0.5,1-1v-2.8C29.9,22.4,29.5,21.9,28.9,21.9L28.9,21.9z M4,7.1C4,6.5,4.5,6,5.1,6h21.8C27.5,6,28,6.5,28,7.1v14.8H4V7.1z
		 M20.2,22.7l-0.5,0.5l-7.4,0l-0.5-0.5L20.2,22.7z M29.2,25.8c0,0.2-0.1,0.3-0.3,0.3H3.1c-0.2,0-0.3-0.1-0.3-0.3v-2.8
		c0-0.2,0.1-0.3,0.3-0.3h7.7l1.1,1.1c0.1,0.1,0.2,0.1,0.3,0.1h7.7c0.1,0,0.2,0,0.3-0.1l1.1-1.1h7.7c0.2,0,0.3,0.1,0.3,0.3L29.2,25.8
		L29.2,25.8z"/>
	<path d="M25.9,7H6.1C5.5,7,5,7.5,5,8.1v11.6c0,0.6,0.5,1.1,1.1,1.1h19.7c0.6,0,1.1-0.5,1.1-1.1V8.1C27,7.5,26.5,7,25.9,7L25.9,7z
		 M26.2,19.7c0,0.2-0.2,0.4-0.4,0.4H6.1c-0.2,0-0.4-0.2-0.4-0.4V8.1c0-0.2,0.2-0.4,0.4-0.4h19.7c0.2,0,0.4,0.2,0.4,0.4V19.7z"/>
</g>
</svg>
