<?xml version="1.0" encoding="utf-8"?>
<!-- Generator: Adobe Illustrator 27.0.1, SVG Export Plug-In . SVG Version: 6.00 Build 0)  -->
<svg version="1.1" id="Calque_1" xmlns="http://www.w3.org/2000/svg" xmlns:xlink="http://www.w3.org/1999/xlink" x="0px" y="0px"
	 viewBox="0 0 32 32" style="enable-background:new 0 0 32 32;" xml:space="preserve">
<style type="text/css">
	.st0{fill:#FFFFFF;}
	.st1{fill-rule:evenodd;clip-rule:evenodd;fill:#FFFFFF;}
	.st2{fill-rule:evenodd;clip-rule:evenodd;}
</style>
<g>
	<path class="st2" d="M3.1,20.8c8.6,0.9,17.3,0.9,25.9,0V6.1H3.1L3.1,20.8z M16,22c-4.4,0-8.9-0.2-13.3-0.7c-0.1,0-0.3-0.1-0.3-0.3
		V5.8c0-0.2,0.1-0.3,0.3-0.3h26.4c0.2,0,0.3,0.1,0.3,0.3V21c0,0.2-0.1,0.3-0.3,0.3C24.9,21.8,20.4,22,16,22L16,22z"/>
	<path class="st2" d="M5.3,18.7h21.4V8.3H5.3L5.3,18.7z M27,19.3H5c-0.2,0-0.3-0.1-0.3-0.3V8c0-0.2,0.1-0.3,0.3-0.3h22
		c0.2,0,0.3,0.1,0.3,0.3v11C27.3,19.2,27.2,19.3,27,19.3z"/>
	<path class="st2" d="M16,20.1c-0.1,0-0.2,0.1-0.2,0.2c0,0.1,0.1,0.2,0.2,0.2c0.1,0,0.2-0.1,0.2-0.2C16.2,20.2,16.1,20.1,16,20.1z
		 M16,21.2c-0.5,0-0.8-0.4-0.8-0.8c0-0.5,0.4-0.8,0.8-0.8s0.8,0.4,0.8,0.8C16.8,20.8,16.5,21.2,16,21.2z"/>
	<path class="st2" d="M14.8,24.3c-0.2,0-0.3-0.1-0.3-0.3v-2.3c0-0.2,0.1-0.3,0.3-0.3c0.2,0,0.3,0.1,0.3,0.3V24
		C15.1,24.2,15,24.3,14.8,24.3z M17.2,24.3c-0.2,0-0.3-0.1-0.3-0.3v-2.3c0-0.2,0.1-0.3,0.3-0.3c0.2,0,0.3,0.1,0.3,0.3V24
		C17.5,24.2,17.4,24.3,17.2,24.3z"/>
	<path class="st2" d="M11.9,25.9h8.3v-1.6h-8.3V25.9z M20.4,26.5h-8.8c-0.2,0-0.3-0.1-0.3-0.3V24c0-0.2,0.1-0.3,0.3-0.3h8.8
		c0.2,0,0.3,0.1,0.3,0.3v2.2C20.7,26.3,20.6,26.5,20.4,26.5z"/>
	<path class="st2" d="M27,10.7H5c-0.2,0-0.3-0.1-0.3-0.3c0-0.2,0.1-0.3,0.3-0.3h22c0.2,0,0.3,0.1,0.3,0.3
		C27.3,10.6,27.2,10.7,27,10.7z"/>
	<path class="st2" d="M25.8,9.5h-0.9c-0.2,0-0.3-0.1-0.3-0.3c0-0.2,0.1-0.3,0.3-0.3h0.9c0.2,0,0.3,0.1,0.3,0.3
		C26.1,9.4,26,9.5,25.8,9.5z"/>
	<path class="st2" d="M23.8,9.5h-0.9c-0.2,0-0.3-0.1-0.3-0.3c0-0.2,0.1-0.3,0.3-0.3h0.9c0.2,0,0.3,0.1,0.3,0.3
		C24.1,9.4,24,9.5,23.8,9.5z"/>
	<path class="st2" d="M21.9,9.5h-0.9c-0.2,0-0.3-0.1-0.3-0.3c0-0.2,0.1-0.3,0.3-0.3h0.9c0.2,0,0.3,0.1,0.3,0.3
		C22.2,9.4,22,9.5,21.9,9.5L21.9,9.5z"/>
	<path class="st2" d="M9.7,12.3c-1.3,0-2.4,1.1-2.4,2.4s1.1,2.4,2.4,2.4c1.3,0,2.4-1.1,2.4-2.4S11,12.3,9.7,12.3z M9.7,17.7
		c-1.7,0-3-1.4-3-3s1.4-3,3-3s3,1.4,3,3S11.4,17.7,9.7,17.7z"/>
	<path class="st2" d="M9.7,12.3c-0.4,0-0.9,1-0.9,2.4c0,1.5,0.5,2.4,0.9,2.4c0.4,0,0.9-1,0.9-2.4C10.6,13.2,10,12.3,9.7,12.3z
		 M9.7,17.7c-0.8,0-1.5-1.3-1.5-3s0.6-3,1.5-3c0.8,0,1.5,1.3,1.5,3S10.5,17.7,9.7,17.7z"/>
	<path class="st2" d="M12.3,14.1H7.1c-0.2,0-0.3-0.1-0.3-0.3c0-0.2,0.1-0.3,0.3-0.3h5.2c0.2,0,0.3,0.1,0.3,0.3
		C12.6,13.9,12.4,14.1,12.3,14.1z"/>
	<path class="st2" d="M12.3,15.9H7.1c-0.2,0-0.3-0.1-0.3-0.3c0-0.2,0.1-0.3,0.3-0.3h5.2c0.2,0,0.3,0.1,0.3,0.3
		C12.6,15.8,12.4,15.9,12.3,15.9z"/>
	<path class="st2" d="M16.7,12.5h-2.4c-0.2,0-0.3-0.1-0.3-0.3c0-0.2,0.1-0.3,0.3-0.3h2.4c0.2,0,0.3,0.1,0.3,0.3
		C17,12.4,16.9,12.5,16.7,12.5L16.7,12.5z M25,12.5h-6.8c-0.2,0-0.3-0.1-0.3-0.3c0-0.2,0.1-0.3,0.3-0.3H25c0.2,0,0.3,0.1,0.3,0.3
		C25.3,12.4,25.2,12.5,25,12.5z"/>
	<path class="st2" d="M18.6,14.2h-4.3c-0.2,0-0.3-0.1-0.3-0.3c0-0.2,0.1-0.3,0.3-0.3h4.3c0.2,0,0.3,0.1,0.3,0.3
		C18.9,14,18.8,14.2,18.6,14.2z M25,14.2h-4.9c-0.2,0-0.3-0.1-0.3-0.3c0-0.2,0.1-0.3,0.3-0.3H25c0.2,0,0.3,0.1,0.3,0.3
		C25.3,14,25.2,14.2,25,14.2z"/>
	<path class="st2" d="M20.8,15.8h-6.5c-0.2,0-0.3-0.1-0.3-0.3c0-0.2,0.1-0.3,0.3-0.3h6.5c0.2,0,0.3,0.1,0.3,0.3
		C21.1,15.7,21,15.8,20.8,15.8z M25,15.8h-2.7c-0.2,0-0.3-0.1-0.3-0.3c0-0.2,0.1-0.3,0.3-0.3H25c0.2,0,0.3,0.1,0.3,0.3
		C25.3,15.7,25.2,15.8,25,15.8z"/>
	<path class="st2" d="M18.1,17.5h-3.7c-0.2,0-0.3-0.1-0.3-0.3c0-0.2,0.1-0.3,0.3-0.3h3.7c0.2,0,0.3,0.1,0.3,0.3
		C18.4,17.3,18.2,17.5,18.1,17.5z M25,17.5h-5.4c-0.2,0-0.3-0.1-0.3-0.3c0-0.2,0.1-0.3,0.3-0.3H25c0.2,0,0.3,0.1,0.3,0.3
		C25.3,17.3,25.2,17.5,25,17.5z"/>
</g>
</svg>
