<?xml version="1.0" encoding="utf-8"?>
<!-- Generator: Adobe Illustrator 27.0.1, SVG Export Plug-In . SVG Version: 6.00 Build 0)  -->
<svg version="1.1" id="Calque_1" xmlns="http://www.w3.org/2000/svg" xmlns:xlink="http://www.w3.org/1999/xlink" x="0px" y="0px"
	 viewBox="0 0 32 32" style="enable-background:new 0 0 32 32;" xml:space="preserve">
<style type="text/css">
	.st0{fill:#FFFFFF;}
	.st1{fill-rule:evenodd;clip-rule:evenodd;fill:#FFFFFF;}
	.st2{fill-rule:evenodd;clip-rule:evenodd;}
</style>
<rect x="16.6" y="23.6" class="st0" width="0.8" height="0.8"/>
<path class="st0" d="M27.7,12.1h-2.8V7c0-0.6-0.5-1.1-1.1-1.1H4.5C3.9,5.9,3.4,6.4,3.4,7v13.6c0,0.6,0.5,1.1,1.1,1.1l7.2,0v2.1h-1.1
	v0.8h3.5v0.7c0,0.3,0.3,0.6,0.6,0.6h4.4c0.3,0,0.6-0.3,0.6-0.6v-0.2h7.9c0.5,0,0.9-0.4,0.9-0.9V13C28.6,12.5,28.2,12.1,27.7,12.1z
	 M4.5,21.4V21c-0.2,0-0.3-0.1-0.3-0.3V7c0-0.2,0.1-0.3,0.3-0.3h19.2C23.9,6.7,24,6.9,24,7v5.1h-5c-0.5,0-0.9,0.4-0.9,0.9v3.3l-3.4,0
	c-0.2,0-0.3,0.1-0.5,0.2c-0.1,0.1-0.2,0.3-0.2,0.5l0,3.9l-9.6,0L4.5,21.4z M12.5,23.9v-2.1l1.6,0v2.1L12.5,23.9L12.5,23.9z
	 M18.9,25.3h-4v-3.5h0l0-0.2v-4.3h3.2h0.4l0.4,0V25.3L18.9,25.3z M27.8,24.3c0,0.1-0.1,0.1-0.1,0.1h-7.9V17c0-0.3-0.3-0.6-0.6-0.6
	h-0.2V13c0-0.1,0.1-0.1,0.1-0.1h5.8h2.8c0.1,0,0.1,0.1,0.1,0.1V24.3z"/>
<rect x="23.6" y="22.6" class="st0" width="0.8" height="0.8"/>
</svg>
