<?xml version="1.0" encoding="UTF-8"?>
<svg id="Calque_1" data-name="Calque 1" xmlns="http://www.w3.org/2000/svg" viewBox="0 0 100.93 121.84">
  <defs>
    <style>
      .cls-1 {
        fill: #e2dfcf;
      }
    </style>
  </defs>
  <path class="cls-1" d="M35.55,75.88c-.04,.05-.09,.1-.13,.14l-.04-.06s0,0,0-.01t0,0s0,0,.01-.01c.01-.02,.03-.03,.04-.05,.02-.02,.04-.04,.06-.07,.01,.01,.02,.03,.03,.04v.02Z"/>
  <g>
    <path class="cls-1" d="M35.48,75.91s-.02,.01-.03,.01h0s.02,0,.03-.01Z"/>
    <path class="cls-1" d="M35.45,75.93h0s.02,0,.03-.01c-.01,0-.02,0-.03,.01Z"/>
  </g>
  <g>
    <path class="cls-1" d="M100.87,78.31c-.29-.7-1.18-.56-2.5-.27-1.03,.21-2.64,.65-3.91,1.07-.47,.15-.96,.31-1.46,.48-1.52,.51-3.09,1.03-4.46,1.19-.77,.09-1.33-.03-1.69-.35-.5-.44-.74-1.32-.76-2.76,0-.98,.07-2.15,.16-3.39,.15-2.23,.33-4.76,0-6.89-.2-1.19-.5-3-1.97-3.64l-.04-.02c-1.71-.61-3.68,.78-5.27,1.89l-.16,.11c-2.71,1.89-5.29,4.72-7.56,7.22l-.51,.56-.23,.23c-.49,.51-.88,.91-1.33,1.18-.11-.3-.18-.93-.24-1.37-.14-1.08-.29-2.31-.91-3.11-.92-1.34-2.67-1.74-4.57-1.06-1.36,.48-2.41,1.64-3.53,2.86-1.3,1.42-2.64,2.9-4.61,3.52-.78,.21-1.64,.27-2.41,.32-1.37,.06-2.76,.03-4.14-.06-1.97-.12-4.88-.46-8.1-.89,7.26-10.17,14.39-20.46,21.32-30.73,7.15-10.71,12.9-19.31,19.06-29.45,2.15-3.58,4.36-7.39,5.8-10.64,.68-1.57,1.02-2.71,1-3.42-.02-.88-.57-1.08-1.62-.68-1.94,.7-5.66,3.8-7.74,5.67-7.72,6.92-16.71,16.43-23.84,24.14-2.78,3.05-25.91,26.79-40.22,41.7-9.65-.67-20.12,.33-10.85,11.59,.04-.01,.09-.04,.13-.06l.07-.05-.04-.05c-.04,.05-.09,.1-.13,.14l-.04-.06s0,0,0-.01t0,0s0,0,.01-.01c.01-.02,.03-.03,.04-.05,.02-.02,.04-.04,.06-.07-1.33-2.05-3.31-4.85-2.85-7.36,.61-2.97,6.45-3.12,12.22-2.57-4.56,4.76-8.04,8.43-9.37,9.94,.01,.01,.02,.03,.03,.04v.02c.18-.18,.37-.39,.53-.55,.82-.82,4.45-4.44,9.42-9.4,4.38,.45,8.62,1.26,10.41,1.5,2.89,.49,6.51,1.12,9.97,1.68-1.36,1.96-2.71,3.91-4.05,5.87-6.42,9.33-13.12,19.21-18.9,28.26-1.88,2.95-3.38,5.38-4.44,7.22-1.24,2.14-1.9,3.47-1.94,3.94h0c-.02,.25,.12,.26,.42,.04,.3-.22,.77-.67,1.4-1.35,2.83-3.12,6.4-7.72,9.63-11.93,7.75-10.2,15.46-20.66,23.04-31.26,.5,.07,.98,.13,1.45,.2,4.18,.5,8.46,1.04,12.71,.71,.85-.09,1.73-.2,2.57-.47h0c2.31-.66,3.52-1.45,4.91-2.37,.51-.34,1.05-.69,1.67-1.06,1.14-.65,1.58-.63,1.73-.56,.15,.06,.23,.3,.28,.49v.04c.15,.47,.17,1.22,.2,2.01,.05,1.93,.12,4.34,2.02,5.25l.05,.02c1.92,.74,3.98-.72,5.64-1.89,1.33-.98,2.78-2.24,3.98-3.45,1.07-1.06,2.04-2.18,2.99-3.26,.54-.62,1.05-1.2,1.54-1.73,.21-.22,.36-.37,.48-.48,0,.04,0,.08,0,.12,.02,.81-.03,1.71-.08,2.67-.16,2.79-.33,5.95,1.05,8.59,1.05,2.08,2.74,2.69,4.44,2.69,1.06,0,2.12-.23,3.04-.5,2.29-.66,4.55-1.66,6.29-2.47l.55-.27c1.31-.64,2.26-1.1,3.39-1.81,.3-.2,1.01-.67,.73-1.33Zm-65.43-3.91c-4.51-.65-8.92-1.32-11.64-1.69-2.16-.25-5.34-.69-8.68-.95,13.93-13.89,36.41-36.32,39.1-39.06,8.54-8.7,18.72-19.39,27.24-27.71,1.59-1.54,3.98-3.8,4.84-4.37,.91-.66,1.27-.64,1.04,.12-.98,2.42-3.14,5.44-5.12,8.43-3.03,4.45-6.59,9.42-9.9,14.02-12.17,16.77-24.86,33.96-36.88,51.19Zm21.27,1.54h0s.02,0,.03-.01c0,0-.02,.01-.03,.01Z"/>
    <path class="cls-1" d="M3.67,83.17l-.06,.05h0s0-.01,0-.01c0,0,0,0,.01-.01,.01-.02,.03-.03,.04-.05,0,0,.02,.02,.02,.03Z"/>
    <path class="cls-1" d="M3.59,83.2s0,0,0,0c0,0,0,0,.01,.01h0s0-.02,0-.03c0,0,0,.01-.01,.01Zm53.11-7.27h0s.02,0,.03-.01c-.01,0-.02,0-.03,.01ZM3.74,83.11s-.02-.03-.03-.04c-.02,.03-.04,.05-.06,.07-.01,.02-.03,.03-.04,.05,0,0,0,.01-.01,.01t0,0s0,0,0,.01l.04,.06s.09-.09,.13-.14v-.02Z"/>
  </g>
</svg>