<?xml version="1.0" encoding="UTF-8"?>
<svg id="Calque_1" data-name="Calque 1" xmlns="http://www.w3.org/2000/svg" viewBox="0 0 21.01 18.05">
  <defs>
    <style>
      .cls-1 {
        fill: #fff;
      }
    </style>
  </defs>
  <path class="cls-1" d="M3.55,2.07h0c-.25,0-.44,.2-.44,.44s.2,.44,.44,.44h7.84c.25,0,.44-.2,.44-.44s-.2-.44-.44-.44H3.55Zm11.85,0h0c-.26,0-.47,.21-.47,.47s.21,.47,.47,.47,.47-.21,.47-.47-.21-.47-.47-.47Zm1.7,0h0c-.26,0-.47,.21-.47,.47s.21,.47,.47,.47,.47-.21,.47-.47-.21-.47-.47-.47Zm.98-1.18h1.27c.26,0,.46,.22,.46,.49V3.85H.59V1.38c0-.27,.21-.48,.46-.49H18.09Zm-7.73,8.14v.1h0c1.14,0,2.06,.92,2.07,2.06h0c0,.17,.1,.31,.24,.39l3.69,2.13c.15,.08,.25,.23,.25,.41,0,.1-.03,.19-.08,.26l-.36,.63c-.08,.14-.23,.22-.4,.22-.08,0-.16-.02-.23-.06l-3.71-2.14c-.07-.05-.16-.08-.26-.08s-.18,.03-.25,.07h0c-.29,.15-.62,.24-.97,.24-1.02,0-1.88-.74-2.04-1.72h-.08l1.65,.95c.07,.04,.16,.06,.24,.06,.04,0,.08,0,.12-.02,.12-.03,.23-.11,.29-.23l.88-1.52c.13-.23,.05-.53-.18-.66l-1.67-.96h0c.24-.1,.5-.15,.78-.15h0Zm0-.97h0s0,0,0,0c0,0,0,0,0,0-.75,0-1.43,.28-1.95,.74-.1,.09-.16,.21-.16,.36,0,.18,.1,.34,.25,.42l1.86,1.09-.38,.67-1.85-1.09c-.07-.05-.16-.08-.25-.08-.25,0-.42,.21-.46,.46h0c-.02,.15-.04,.31-.04,.47,0,1.69,1.34,3.05,2.99,3.05,.43,0,.83-.09,1.2-.25h0l3.5,2.06c.2,.12,.44,.19,.69,.19,.52,0,.97-.29,1.21-.72l.37-.65c.12-.21,.18-.45,.18-.71,0-.52-.27-.97-.68-1.22l-3.5-2.06h0c-.15-1.54-1.43-2.74-2.98-2.74h0Zm-.59-2.73v.3h-.14c-.12-.24-.24-.2-.32-.11-.09,.09-.14,.21-.13,.33v.82c-.39,.1-1.18,.44-1.18,.44h0s-.56-.57-.56-.57c-.09-.09-.21-.14-.33-.14v-.19h.08v.3h0c-.12-.12-.23-.07-.32,.02l-1.02,1.02c-.09,.09-.14,.21-.14,.34s.05,.25,.14,.33l.38,.58h0s-.15,.69-.25,1.07v-.1h-.93v0h.11v.3h0s-.24-.14-.32-.06c-.09,.09-.14,.21-.08,.33v1.44c-.06,.26,.41,.36,.41,.36h.89c.11,.38,.27,.74,.47,1.07h0s-.61,.58-.61,.58c-.09,.09-.15,.21-.15,.33s.05,.25,.15,.33l1.07,1.02c.1,.09,.22,.14,.35,.14s.25-.05,.35-.14l.61-.58v.2h-.19c.33,.1,1.08,.36,1.08,.36v-.06h0v.75c0,.12,.05,.23,.14,.31,.09,.08,.21,.13,.33,.13h1.43c.26,0,.47-.2,.47-.43v-.75h0s0,.06,0,.06c.04-.01,.09-.02,.13-.04,.2-.06,.34-.24,.34-.45,0-.26-.21-.47-.47-.47-.06,0-.12,.01-.18,.03h0c-.25,.07-.5,.12-.71,.14v1.03h-.59v-1.03s-.6-.09-.89-.19h-.01c-.13-.05-.24-.1-.36-.15h0c-.29-.14-.56-.32-.8-.53l-.81,.8-.35-.35,.8-.8c-.21-.24-.39-.51-.53-1h0c-.06,.07-.11-.05-.15-.18h0c-.1-.3-.19-1-.19-1h-1.14v-.59h1.13c.03-.17,.09-.49,.2-.79,.04-.13,.15-.37,.15-.37h0s.33-.56,.54-.81h0s-.8-.81-.8-.81l.35-.35,.8,.8c.24-.21,.51-.39,.8-.53h0c.12-.06,.24-.11,.37-.11h0c.3-.15,.61-.21,.9-.23v-1.25h.59v1.25c.28,.02,.6,.09,.89,.19,.13,.05,.58,.15,.58,.15h0s.35,.32,.59,.53l.89-.81h0s.27,.35,.27,.35l-.81,.81c.21,.24,.39,.51,.53,.8,0,0,0,0,0-.02h0c.06,.15,.11,.27,.16,.4,.1,.3,.19,.79,.19,.79h1.14v.09c0,.24,.2,.44,.44,.44s.44-.2,.44-.44v-.54c0-.12-.05-.23-.13-.31-.08-.08-.2-.13-.31-.13h-.74v.1h0c-.15-.38-.3-.74-.49-.99h0l.58-.66c.18-.18,.18-.48,0-.67l-1.02-1.02c-.09-.09-.25-.14-.25-.14v-.18h-.08v.3h0c-.12-.12-.24-.07-.33,.02l-.58,.58c-.33-.19-1.08-.44-1.08-.44v-.81s-.2-.47-.46-.52h-1.31Zm10.06-.59v11.95c0,.26-.21,.47-.46,.48H1.05c-.26,0-.46-.22-.46-.48V4.73H19.82ZM18.34,0h0S2.48,.3,2.48,.3H1.24C.46,0,0,1.42,0,1.42v15.2s.46,1.42,1.24,1.14h1.13v.3l15.86-.3h1.36c.78,0,1.42-.63,1.42-1.4V1.4c0-.77-.63-1.4-1.42-1.4h-1.24Z"/>
</svg>