<?xml version="1.0" encoding="UTF-8"?>
<svg id="Calque_1" data-name="Calque 1" xmlns="http://www.w3.org/2000/svg" viewBox="0 0 23.54 17.78">
  <defs>
    <style>
      .cls-1 {
        fill: #fff;
      }
    </style>
  </defs>
  <path class="cls-1" d="M22.14,0H3.71c-.75,0-1.36,.76-1.36,1.69v.14H1.25c-.69,0-1.25,.56-1.25,1.25V12.07s.43,1.25,1.12,1.27h1.2c.07,.82,1.41,1.31,1.41,1.31h6.86l-.55,1.05h-1.11c-.6,0-1.09,.49-1.09,1.09v.7c0,.17,.14,.31,.31,.31h9.59c.17,0,.31-.14,.31-.31v-.65s-.63-1.09-1.23-1.13h-1.12l-.55-1.05h7c.77,0,1.39-.74,1.39-1.64V1.64c0-.91-.63-1.64-1.39-1.64ZM2.88,1.57c0-.57,.36-1.05,.79-1.05H21.95c.44,0,.8,.49,.8,1.06V11.77H8.37V3.08c0-.69-.56-1.25-1.25-1.25H2.88v-.26h0ZM.52,12.18V2.99c0-.35,.29-.64,.64-.64H7.21c.35,0,.64,.29,.64,.64V12.18c0,.35-.29,.64-.64,.64H1.16c-.35,0-.64-.29-.64-.64Zm16.74,4.52v.57H8.37v-.57c0-.26,.21-.48,.48-.48h7.93c.26,0,.48,.21,.48,.48Zm-2.28-1h-4.22l.55-1.05h3.12l.55,1.05Zm7.02-1.57H3.74c-.39,.08-.79-.78-.79-.78H7.06s1.05-.41,1.2-.78h14.49v.6s-.32,1.06-.76,.97Zm-7.83-.82c0,.17-.14,.31-.31,.29h-1.98c-.17,.01-.31-.12-.31-.29s.14-.31,.31-.23h1.98c.17-.08,.31,.06,.31,.23ZM7.32,3.79c0-.5-.41-.91-.91-.91H1.95c-.5,0-.91,.41-.91,.91v7.07c0,.5,.41,.91,.91,.91H6.41c.5,0,.91-.41,.91-.91V3.79h0Zm-1.08,7.19H1.87c-.16,0-.3-.13-.3-.3V3.7c0-.16,.13-.3,.3-.3H6.24c.16,0,.3,.13,.3,.3v6.99c0,.16-.13,.3-.3,.3Zm-1.34,1.17c0,.17-.14,.31-.31,.13h-1.02c-.17,.17-.31,.04-.31-.13s.14-.31,.31-.39h1.02c.17,.08,.31,.22,.31,.39ZM2.86,7.37c-.08,0-.16-.03-.22-.09-.12-.12-.12-.31,0-.43l1.1-1.1c.12-.12,.31-.12,.43,0,.12,.12,.12,.31,0,.43l-1.1,1.1c-.06,.06-.14,.09-.22,.09Zm2.67-1.39c.12,.12,.12,.31,0,.43l-2.23,2.23c-.06,.06-.14,.09-.22,.09s-.16-.03-.22-.09c-.12-.12-.12-.31,0-.43l2.23-2.23c.12-.12,.31-.12,.43,0Zm5.55,1.87h3.31l2.6,2.6c.06,.06,.14,.09,.22,.09,.04,0,.08,0,.12-.02,.11-.05,.19-.16,.19-.28v-2.39h1.73c.49,0,.89-.4,.89-.89V2.46c0-.49-.4-.89-.89-.89H11.09c-.49,0-.89,.4-.89,.89V6.96c0,.49,.4,.89,.89,.89Zm-.1-5.22c0-.15,.12-.27,.28-.27h8.08c.15,0,.28,.12,.28,.28V7.05c0,.15-.12,.28-.28,.28h-2.03c-.17,0-.31,.14-.31,.31v1.93l-2.19-2.15c-.06-.06-.13-.09-.21-.09h-3.33c-.15,0-.28-.12-.28-.28V2.63h0Zm1.27,.77c0-.17,.14-.31,.31-.26h5.47c.17-.05,.31,.09,.31,.26s-.14,.31-.31,.27h-5.47c-.17,.04-.31-.1-.31-.27Zm0,1.41c0-.17,.14-.31,.31-.35h5.47c.17,.05,.31,.18,.31,.35s-.14,.31-.31,.17h-5.47c-.17,.14-.31,0-.31-.17Zm0,1.4c0-.17,.14-.31,.31-.19h2.74c.17-.12,.31,.02,.31,.19s-.14,.31-.31,.33h-2.74c-.17-.03-.31-.16-.31-.33Z"/>
</svg>