<?xml version="1.0" encoding="UTF-8"?>
<svg id="Calque_1" data-name="Calque 1" xmlns="http://www.w3.org/2000/svg" viewBox="0 0 22.93 20.71">
  <defs>
    <style>
      .cls-1 {
        fill: #fff;
      }
    </style>
  </defs>
  <path class="cls-1" d="M14.09,11.33c.55-1.33,.71-2.81,.42-4.27l-1.01,.2c.42,2.08-.22,4.21-1.72,5.71-1.19,1.19-2.77,1.85-4.45,1.85s-3.26-.65-4.45-1.85C.42,10.53,.42,6.53,2.87,4.08l-.73-.73C-.71,6.2-.71,10.85,2.14,13.71c1.38,1.38,3.23,2.15,5.18,2.15,.98,0,1.93-.19,2.81-.56l4.59,4.59c.54,.54,1.26,.82,1.98,.82s1.43-.27,1.98-.82c1.09-1.09,1.09-2.87,0-3.96l-4.6-4.6h0Zm3.87,7.83c-.67,.67-1.83,.67-2.5,0l-4.36-4.36c.51-.3,.98-.66,1.41-1.09,.43-.43,.79-.9,1.1-1.4l4.35,4.35c.69,.69,.69,1.81,0,2.5h0Z"/>
  <path class="cls-1" d="M22.58,9.2h-.34c-.11,0-.19-.06-.23-.14h0c-.04-.09-.03-.19,.04-.26l.31-.29c.16-.15,.16-.39,0-.54l-.58-.55c-.16-.15-.41-.15-.57,0l-.3,.29c-.05,.04-.11,.07-.17,.07-.04,0-.07,0-.11-.03-.1-.03-.16-.12-.16-.21v-.41c0-.22-.19-.38-.4-.38h-.75c-.21,0-.38,.17-.38,.38v.41c0,.09-.07,.18-.15,.21-.03,.02-.07,.03-.1,.03-.06,0-.12-.03-.16-.07l-.29-.29c-.15-.15-.39-.15-.54,0l-.54,.55c-.15,.15-.15,.39,0,.54l.28,.29c.07,.07,.08,.17,.05,.25h0c-.03,.09-.12,.15-.21,.15h-.41c-.21,0-.38,.18-.38,.39v.76c0,.22,.18,.38,.38,.38h.41c.09,0,.18,.07,.21,.15,0,0,0,0,0,0,.03,.08,.02,.18-.05,.25l-.28,.29c-.15,.15-.15,.39,0,.54l.54,.55c.15,.15,.39,.15,.54,0l.29-.29c.07-.07,.17-.08,.26-.04,.08,.03,.15,.12,.15,.21v.41c0,.21,.17,.38,.38,.38h.75c.22,0,.4-.17,.4-.38v-.41c0-.09,.06-.17,.16-.21,.09-.04,.19-.03,.27,.04l.3,.29c.16,.15,.41,.15,.57,0l.57-.54c.16-.15,.16-.4,0-.55l-.3-.28c-.07-.07-.09-.17-.04-.25h0c.03-.1,.11-.16,.2-.16h.34c.21,0,.38-.17,.38-.38v-.76c0-.22-.15-.39-.35-.39h0Zm-2.83,1.84c-.65,0-1.17-.52-1.17-1.17s.52-1.17,1.17-1.17,1.17,.52,1.17,1.17-.52,1.17-1.17,1.17Z"/>
  <path class="cls-1" d="M6.53,5.82h11.18v-.92H6.58c-1.24,0-2.22-1.06-1.94-2.25,.2-.86,1.02-1.43,1.9-1.43h12.41s0-1.23,0-1.23H6.58c-1.93,0-3.44,1.7-2.98,3.6,.32,1.33,1.57,2.22,2.93,2.22Z"/>
  <path class="cls-1" d="M7.3,2.45h7.97v.92H7.3v-.92Z"/>
  <path class="cls-1" d="M16.18,2.45h1.23v.92h-1.23v-.92Z"/>
  <path class="cls-1" d="M18.64,2.45h1.23v.92h-1.23v-.92Z"/>
</svg>