<?xml version="1.0" encoding="utf-8"?>
<!-- Generator: Adobe Illustrator 27.0.1, SVG Export Plug-In . SVG Version: 6.00 Build 0)  -->
<svg version="1.1" id="Calque_1" xmlns="http://www.w3.org/2000/svg" xmlns:xlink="http://www.w3.org/1999/xlink" x="0px" y="0px"
	 viewBox="0 0 100 63.6" style="enable-background:new 0 0 100 63.6;" xml:space="preserve">
<path d="M26.3,51.6l29.4,0.6L41.6,39.3l-8.7-1.5h-0.2c-0.1,0-0.1,0-0.1-0.1h-0.2l-1.3-1H26L26.3,51.6z"/>
<polygon points="64.9,43.5 74.9,52.6 82.2,52.8 82.3,46.7 "/>
<polygon points="23.9,36 8.1,26.9 7.9,41.5 24.2,50.8 "/>
<polygon points="28.6,34.4 17.2,25.3 9.2,25.2 25.2,34.4 "/>
<polygon points="89.2,45.8 92.1,30.7 67.6,26.4 82.1,44.6 "/>
<polygon points="36.3,20.9 34.2,35.9 63.2,41.2 48.8,23.1 "/>
<polygon points="32.3,34.8 34.3,20.2 20.1,8.7 17.7,23.1 "/>
<polygon points="91.6,28.6 77.3,17 21.5,7.2 35.8,18.8 "/>
</svg>
