<?xml version="1.0" encoding="UTF-8"?>
<svg id="Calque_1" data-name="Calque 1" xmlns="http://www.w3.org/2000/svg" viewBox="0 0 25.19 19.47">
  <defs>
    <style>
      .cls-1 {
        fill: #fff;
        fill-rule: evenodd;
      }
    </style>
  </defs>
  <path class="cls-1" d="M.57,14.27c7.98,.82,16.07,.82,24.05,0V.57H.57V14.27Zm12.02,1.19c-4.13,0-8.25-.21-12.35-.64C.11,14.8,0,14.68,0,14.54V.28c0-.15,.12-.28,.28-.28H24.92c.15,0,.28,.12,.28,.28V14.54c0,.14-.11,.26-.25,.28-4.1,.43-8.22,.64-12.35,.64h0Z"/>
  <path class="cls-1" d="M2.58,12.31H22.62V2.58H2.58V12.31Zm20.34,.57H2.28c-.15,0-.28-.12-.28-.28V2.28c0-.15,.12-.28,.28-.28H22.91c.15,0,.28,.12,.28,.28V12.61c0,.15-.12,.28-.28,.28Z"/>
  <path class="cls-1" d="M12.47,13.59c-.12,0-.22,.1-.22,.22s.1,.22,.22,.22,.22-.1,.22-.22-.1-.22-.22-.22Zm0,1c-.43,0-.78-.35-.78-.78s.35-.78,.78-.78,.78,.35,.78,.78-.35,.78-.78,.78Z"/>
  <path class="cls-1" d="M11.45,17.55c-.16,0-.29-.13-.29-.29v-2.24c0-.16,.13-.29,.29-.29s.29,.13,.29,.29v2.24c0,.16-.13,.29-.29,.29Zm2.29,0c-.16,0-.29-.13-.29-.29v-2.24c0-.16,.13-.29,.29-.29s.29,.13,.29,.29v2.24c0,.16-.13,.29-.29,.29Z"/>
  <path class="cls-1" d="M8.59,18.9h7.73v-1.43h-7.73v1.43Zm8.03,.57H8.29c-.15,0-.28-.12-.28-.28v-2.02c0-.15,.12-.28,.28-.28h8.32c.15,0,.28,.12,.28,.28v2.02c0,.15-.12,.28-.28,.28Z"/>
  <path class="cls-1" d="M23.14,4.87H1.8c-.16,0-.29-.13-.29-.29s.13-.29,.29-.29H23.14c.16,0,.29,.13,.29,.29s-.13,.29-.29,.29Z"/>
  <path class="cls-1" d="M21.67,3.72h-.89c-.16,0-.29-.13-.29-.29s.13-.29,.29-.29h.89c.16,0,.29,.13,.29,.29s-.13,.29-.29,.29Z"/>
  <path class="cls-1" d="M19.82,3.72h-.89c-.16,0-.29-.13-.29-.29s.13-.29,.29-.29h.89c.16,0,.29,.13,.29,.29s-.13,.29-.29,.29Z"/>
  <path class="cls-1" d="M17.98,3.72h-.89c-.16,0-.29-.13-.29-.29s.13-.29,.29-.29h.89c.16,0,.29,.13,.29,.29s-.13,.29-.29,.29h0Z"/>
  <path class="cls-1" d="M6.57,6.24c-1.26,0-2.28,1.02-2.28,2.28s1.02,2.28,2.28,2.28,2.28-1.02,2.28-2.28-1.02-2.28-2.28-2.28Zm0,5.12c-1.56,0-2.84-1.27-2.84-2.84s1.27-2.84,2.84-2.84,2.84,1.27,2.84,2.84-1.27,2.84-2.84,2.84Z"/>
  <path class="cls-1" d="M6.57,6.24c-.34,0-.83,.89-.83,2.28s.49,2.28,.83,2.28,.84-.89,.84-2.28-.5-2.28-.84-2.28Zm0,5.12c-.79,0-1.39-1.22-1.39-2.84s.59-2.84,1.39-2.84,1.39,1.22,1.39,2.84-.59,2.84-1.39,2.84Z"/>
  <path class="cls-1" d="M9.06,8.02H4.07c-.16,0-.29-.13-.29-.29s.13-.29,.29-.29h4.99c.16,0,.29,.13,.29,.29s-.13,.29-.29,.29Z"/>
  <path class="cls-1" d="M9.06,9.73H4.07c-.16,0-.29-.13-.29-.29s.13-.29,.29-.29h4.99c.16,0,.29,.13,.29,.29s-.13,.29-.29,.29Z"/>
  <path class="cls-1" d="M13.21,6.59h-2.32c-.16,0-.29-.13-.29-.29s.13-.29,.29-.29h2.32c.16,0,.29,.13,.29,.29s-.13,.29-.29,.29h0Zm7.84,0h-6.55c-.16,0-.29-.13-.29-.29s.13-.29,.29-.29h6.55c.16,0,.29,.13,.29,.29s-.13,.29-.29,.29Z"/>
  <path class="cls-1" d="M15.02,8.02h-4.16c-.16,0-.29-.13-.29-.29s.13-.29,.29-.29h4.16c.16,0,.29,.13,.29,.29s-.13,.29-.29,.29Zm6,0h-4.7c-.16,0-.29-.13-.29-.29s.13-.29,.29-.29h4.7c.16,0,.29,.13,.29,.29s-.13,.29-.29,.29Z"/>
  <path class="cls-1" d="M17.07,9.45h-6.25c-.16,0-.29-.13-.29-.29s.13-.29,.29-.29h6.25c.16,0,.29,.13,.29,.29s-.13,.29-.29,.29Zm3.91,0h-2.61c-.16,0-.29-.13-.29-.29s.13-.29,.29-.29h2.61c.16,0,.29,.13,.29,.29s-.13,.29-.29,.29Z"/>
  <path class="cls-1" d="M14.47,11.17h-3.61c-.16,0-.29-.13-.29-.29s.13-.29,.29-.29h3.61c.16,0,.29,.13,.29,.29s-.13,.29-.29,.29Zm6.55,0h-5.26c-.16,0-.29-.13-.29-.29s.13-.29,.29-.29h5.26c.16,0,.29,.13,.29,.29s-.13,.29-.29,.29Z"/>
</svg>